<?xml version="1.0" standalone="no"?>
<!DOCTYPE svg PUBLIC "-//W3C//DTD SVG 20010904//EN"
 "http://www.w3.org/TR/2001/REC-SVG-20010904/DTD/svg10.dtd">
<svg version="1.0" xmlns="http://www.w3.org/2000/svg"
 width="512.000000pt" height="512.000000pt" viewBox="0 0 512.000000 512.000000"
 preserveAspectRatio="xMidYMid meet">
<metadata>
Created by potrace 1.16, written by Peter Selinger 2001-2019
</metadata>
<g transform="translate(0.000000,512.000000) scale(0.100000,-0.100000)"
fill="#000000" stroke="none">
<path d="M2225 5101 c-109 -31 -175 -71 -265 -161 -47 -47 -93 -103 -103 -125
l-18 -41 -72 -2 c-164 -5 -300 -65 -423 -186 -66 -65 -89 -97 -122 -166 -22
-47 -46 -114 -52 -150 -7 -36 -14 -75 -16 -86 -3 -20 -12 -22 -111 -27 -180
-8 -309 -64 -433 -187 -75 -75 -141 -191 -165 -291 -19 -82 -19 -239 0 -312 8
-32 15 -59 15 -61 0 -2 -26 -21 -57 -44 -166 -116 -295 -312 -339 -514 -21
-98 -21 -282 0 -373 52 -220 169 -396 349 -524 26 -19 47 -38 47 -42 0 -5 -7
-34 -15 -66 -19 -74 -19 -232 0 -308 37 -145 140 -295 202 -295 40 0 73 36 73
81 0 26 -11 50 -40 89 -58 78 -82 148 -88 256 -9 179 68 327 225 431 57 37 68
58 58 103 -8 35 -39 60 -76 60 -37 0 -134 -66 -202 -138 l-58 -62 -42 29
c-199 139 -317 407 -286 653 20 163 85 295 203 414 121 121 256 185 431 206
108 12 131 22 144 60 13 37 0 71 -34 94 -32 21 -142 14 -261 -16 -42 -11 -78
-20 -80 -20 -11 0 -24 78 -24 145 0 218 145 402 362 460 66 17 121 17 268 -1
36 -5 51 -2 70 14 23 19 25 27 26 119 0 66 6 116 18 153 68 206 253 342 462
342 251 -1 451 -186 478 -443 9 -80 30 -109 80 -109 19 0 44 9 57 19 22 17 24
26 22 88 -4 97 -19 156 -66 253 -57 119 -167 229 -285 286 l-84 41 62 67 c46
48 82 76 137 103 67 33 86 38 168 41 136 6 228 -27 327 -117 77 -71 128 -170
143 -283 l6 -48 -90 0 c-80 0 -93 -2 -111 -22 -11 -12 -20 -35 -20 -53 0 -18
9 -41 20 -53 18 -19 31 -22 110 -22 l90 0 0 -245 0 -246 -342 3 -343 3 -40 26
c-75 49 -105 97 -120 189 -4 25 -12 53 -17 63 -14 28 -55 39 -94 27 -44 -15
-57 -55 -44 -133 19 -117 82 -214 179 -276 90 -58 113 -61 484 -61 l337 0 0
-630 0 -630 -623 0 -624 0 -21 -23 c-27 -29 -28 -77 -3 -108 l19 -24 626 -3
626 -2 0 -510 0 -510 -147 0 c-169 0 -215 -10 -299 -66 -99 -66 -162 -177
-167 -294 -3 -73 18 -100 75 -100 50 0 69 23 85 101 15 76 50 130 106 166 40
27 48 28 195 31 l152 4 0 -271 0 -271 -89 0 c-85 0 -91 -1 -110 -26 -26 -33
-27 -75 -2 -105 15 -19 30 -24 85 -27 l66 -4 -23 -40 c-32 -58 -122 -136 -197
-172 -61 -29 -72 -31 -180 -31 -108 0 -119 2 -180 31 -77 37 -129 77 -175 135
l-33 42 70 33 c88 43 175 110 187 146 19 54 -20 108 -78 108 -11 0 -46 -20
-79 -45 -211 -158 -467 -146 -646 32 -78 78 -127 179 -141 295 l-7 53 46 22
c139 68 188 142 131 198 -31 31 -72 32 -116 2 -109 -73 -174 -96 -294 -104
-75 -5 -93 -10 -112 -29 -43 -43 -21 -114 41 -130 14 -3 52 -4 86 -2 54 3 61
1 65 -17 2 -11 8 -49 14 -85 13 -80 74 -208 133 -277 115 -137 268 -214 454
-229 l85 -7 21 -41 c11 -23 57 -77 102 -121 126 -124 250 -175 426 -175 172 0
308 56 426 174 130 131 173 237 181 449 l6 137 201 0 201 0 94 -94 94 -94 -17
-41 c-37 -94 -8 -211 71 -282 50 -46 101 -63 178 -63 139 2 241 98 253 240 4
51 0 71 -20 115 -28 61 -74 110 -127 135 -45 22 -140 30 -183 15 -32 -11 -32
-11 -138 93 -59 59 -121 112 -142 121 -30 12 -82 15 -253 15 l-215 0 0 195 0
195 320 0 320 0 19 -38 c52 -101 169 -155 284 -130 202 43 276 289 130 434
-47 47 -88 66 -158 71 -113 9 -207 -39 -253 -130 l-25 -47 -318 0 -319 0 0
250 0 250 384 0 384 0 13 -32 c65 -157 295 -200 417 -78 55 54 76 106 76 185
0 59 -4 79 -29 124 -49 88 -124 132 -229 132 -99 0 -185 -50 -227 -133 l-19
-38 -385 0 -385 0 0 265 0 265 88 0 89 0 18 -41 c68 -150 291 -181 414 -58 76
75 94 198 45 297 -82 165 -308 191 -428 50 -20 -23 -39 -53 -42 -65 -6 -22
-11 -23 -95 -23 l-89 0 0 210 0 210 415 0 416 0 93 -90 c82 -79 97 -90 129
-90 27 0 41 7 56 26 41 52 24 89 -91 199 -45 44 -99 88 -120 98 -32 15 -80 17
-467 17 l-431 0 0 155 0 155 330 0 c275 0 337 3 368 15 22 10 98 77 192 170
l155 154 44 -10 c93 -21 206 27 262 111 35 51 43 92 37 174 -11 132 -116 225
-253 226 -105 0 -203 -64 -242 -159 -21 -49 -20 -146 2 -200 l18 -43 -140
-139 -139 -139 -317 0 -317 0 0 240 0 240 84 0 c79 0 84 -1 90 -23 3 -12 21
-41 41 -64 97 -114 282 -118 383 -9 79 85 95 213 39 309 -103 175 -366 166
-458 -15 l-19 -38 -79 0 -79 0 -7 67 c-8 80 -42 184 -81 250 -72 124 -227 240
-371 277 -81 21 -240 20 -318 -3z m1228 -582 c60 -31 74 -97 32 -147 -47 -56
-133 -44 -161 23 -18 45 -10 78 28 110 32 27 66 32 101 14z m748 -158 c22 -23
29 -39 29 -69 0 -87 -101 -128 -164 -66 -30 30 -37 64 -20 102 28 67 105 83
155 33z m-738 -1532 c60 -31 76 -107 32 -152 -34 -34 -67 -40 -110 -23 -49 21
-71 72 -51 120 24 58 78 81 129 55z m616 -710 c48 -44 49 -98 4 -144 -58 -57
-163 -12 -163 70 0 79 102 126 159 74z m-125 -656 c34 -33 42 -65 26 -104 -17
-39 -46 -59 -90 -59 -44 0 -73 20 -90 59 -38 94 83 176 154 104z m-76 -948
c39 -33 48 -74 27 -115 -56 -109 -222 -32 -175 81 25 59 99 76 148 34z"/>
<path d="M1733 4476 c-102 -33 -168 -91 -209 -182 -49 -112 -28 -194 51 -194
44 0 72 27 80 77 16 87 91 152 178 153 72 0 112 76 69 130 -23 29 -107 36
-169 16z"/>
<path d="M1011 3799 c-52 -20 -66 -77 -31 -121 15 -20 32 -27 77 -33 111 -13
208 -78 256 -170 28 -56 35 -176 13 -230 -26 -63 -66 -114 -114 -147 -45 -31
-125 -58 -175 -58 -63 0 -99 -81 -58 -131 16 -20 28 -24 78 -24 193 2 372 138
428 328 19 63 19 197 1 258 -47 155 -174 280 -321 317 -65 16 -128 21 -154 11z"/>
<path d="M4475 3794 c-187 -66 -226 -333 -66 -450 192 -140 452 22 409 257
-28 155 -192 247 -343 193z m135 -159 c35 -18 50 -43 50 -85 0 -45 -16 -70
-57 -86 -116 -49 -188 114 -78 174 28 16 51 15 85 -3z"/>
<path d="M1964 3352 c-34 -5 -53 -34 -60 -88 -11 -89 -35 -153 -78 -211 -68
-93 -158 -143 -281 -158 -73 -9 -105 -34 -105 -81 0 -74 62 -97 188 -70 200
42 366 198 417 391 17 67 20 157 5 185 -11 21 -55 37 -86 32z"/>
<path d="M2310 3312 c-19 -15 -25 -29 -25 -62 0 -50 30 -80 78 -80 102 0 193
-115 167 -211 -20 -72 -101 -138 -170 -139 -83 -1 -106 -118 -29 -150 59 -25
180 14 252 80 214 196 100 546 -189 576 -50 5 -63 3 -84 -14z"/>
<path d="M4311 2919 c-33 -13 -50 -38 -51 -73 0 -22 17 -46 81 -112 l82 -83
-13 -45 c-44 -160 61 -316 225 -333 147 -15 285 110 285 257 0 149 -140 273
-287 256 -30 -4 -63 -11 -72 -16 -14 -7 -31 5 -87 62 -56 56 -118 101 -136 97
-2 0 -14 -5 -27 -10z m419 -324 c59 -59 14 -160 -71 -160 -34 0 -46 6 -70 33
-35 39 -37 79 -8 116 41 52 103 56 149 11z"/>
<path d="M622 2765 c-35 -15 -42 -31 -42 -94 0 -143 112 -295 257 -352 51 -19
78 -22 225 -23 155 -1 169 0 187 19 31 32 31 85 1 115 -18 18 -33 20 -145 20
-152 0 -213 12 -268 54 -52 40 -84 96 -98 172 -16 88 -53 115 -117 89z"/>
<path d="M1187 1890 c-112 -19 -229 -108 -275 -208 -35 -78 -49 -169 -31 -207
30 -63 131 -54 144 13 24 124 46 166 106 206 63 43 97 46 461 46 l347 0 20 26
c35 45 24 96 -26 122 -25 14 -667 15 -746 2z"/>
<path d="M2165 1888 c-51 -29 -60 -84 -20 -123 24 -25 26 -25 213 -25 184 0
189 1 210 23 37 39 28 98 -19 122 -36 19 -352 21 -384 3z"/>
<path d="M4725 1875 c-100 -37 -165 -132 -165 -242 0 -105 43 -180 132 -229
44 -23 65 -28 123 -28 153 0 258 103 258 252 0 149 -96 251 -243 258 -41 2
-80 -2 -105 -11z m136 -161 c17 -8 37 -30 45 -50 20 -48 -1 -99 -51 -120 -116
-48 -191 113 -80 174 28 16 51 15 86 -4z"/>
<path d="M1541 1543 c-16 -13 -23 -30 -24 -55 -1 -50 24 -75 82 -84 132 -19
210 -101 211 -220 0 -106 -78 -193 -190 -212 -90 -16 -120 -50 -99 -112 14
-38 36 -50 91 -50 133 0 269 93 330 226 19 40 23 66 23 149 0 93 -2 105 -32
166 -60 120 -175 200 -303 207 -53 3 -70 0 -89 -15z"/>
<path d="M4445 1104 c-91 -23 -150 -66 -188 -138 -28 -55 -30 -174 -4 -228 48
-95 126 -143 237 -143 116 0 189 47 238 154 56 122 -6 284 -129 335 -40 17
-123 27 -154 20z m103 -181 c24 -15 42 -51 42 -85 0 -11 -15 -35 -34 -54 -47
-47 -86 -46 -133 1 -31 31 -35 40 -30 71 7 43 22 63 62 80 32 14 56 11 93 -13z"/>
</g>
</svg>
