<?xml version="1.0" standalone="no"?>
<!DOCTYPE svg PUBLIC "-//W3C//DTD SVG 20010904//EN"
 "http://www.w3.org/TR/2001/REC-SVG-20010904/DTD/svg10.dtd">
<svg version="1.0" xmlns="http://www.w3.org/2000/svg"
 width="512.000000pt" height="512.000000pt" viewBox="0 0 512.000000 512.000000"
 preserveAspectRatio="xMidYMid meet">
<metadata>
Created by potrace 1.16, written by Peter Selinger 2001-2019
</metadata>
<g transform="translate(0.000000,512.000000) scale(0.100000,-0.100000)"
fill="#000000" stroke="none">
<path d="M1930 4776 c-70 -15 -136 -53 -184 -107 -66 -72 -83 -125 -116 -353
-16 -115 -30 -210 -30 -212 0 -1 -278 -4 -617 -6 -600 -4 -620 -4 -674 -25
-124 -47 -212 -127 -268 -243 l-36 -75 -3 -1515 c-2 -1151 0 -1526 9 -1560 41
-155 152 -271 311 -327 51 -17 140 -18 2238 -18 2098 0 2187 1 2238 18 159 56
270 172 311 327 9 34 11 409 9 1560 l-3 1515 -36 75 c-56 116 -144 196 -268
243 -54 21 -74 21 -673 25 -340 2 -618 5 -618 6 0 2 -14 97 -30 212 -34 231
-51 283 -119 356 -51 56 -119 93 -195 107 -86 16 -1172 13 -1246 -3z m1194
-306 c30 -11 29 -9 59 -212 l24 -158 -647 0 -647 0 24 158 c30 201 30 201 56
212 30 12 1099 13 1131 0z m1577 -691 c40 -14 76 -44 95 -81 22 -43 20 -902
-2 -979 -51 -173 -205 -310 -380 -339 -33 -6 -315 -10 -651 -10 l-591 0 -4
139 c-3 152 -9 168 -72 215 -27 21 -38 21 -536 21 -498 0 -509 0 -536 -21 -63
-47 -69 -63 -72 -215 l-4 -139 -591 0 c-336 0 -618 4 -651 10 -175 29 -329
166 -380 339 -22 77 -24 936 -2 979 19 36 54 67 91 80 44 15 4240 16 4286 1z
m-1841 -1552 l0 -213 -144 -77 c-79 -42 -149 -77 -156 -77 -7 0 -77 35 -156
77 l-144 77 0 213 0 213 300 0 300 0 0 -213z m-2494 -49 c25 -17 80 -44 122
-60 144 -56 168 -58 843 -58 l619 0 0 -71 c0 -96 16 -154 51 -183 25 -21 260
-151 454 -250 113 -58 95 -63 458 131 98 52 191 106 206 119 35 29 51 87 51
183 l0 71 619 0 c675 0 699 2 843 58 42 16 97 43 122 60 26 18 49 32 52 32 2
0 4 -328 4 -729 l0 -728 -23 -33 c-12 -18 -35 -43 -50 -54 l-28 -21 -2149 0
-2149 0 -28 21 c-15 11 -38 36 -51 54 l-22 33 0 728 c0 401 2 729 4 729 3 0
26 -14 52 -32z"/>
</g>
</svg>
