<?xml version="1.0" standalone="no"?>
<!DOCTYPE svg PUBLIC "-//W3C//DTD SVG 20010904//EN"
 "http://www.w3.org/TR/2001/REC-SVG-20010904/DTD/svg10.dtd">
<svg version="1.0" xmlns="http://www.w3.org/2000/svg"
 width="512.000000pt" height="512.000000pt" viewBox="0 0 512.000000 512.000000"
 preserveAspectRatio="xMidYMid meet">
<metadata>
Created by potrace 1.16, written by Peter Selinger 2001-2019
</metadata>
<g transform="translate(0.000000,512.000000) scale(0.100000,-0.100000)"
fill="#000000" stroke="none">
<path d="M1883 4737 l-662 -382 -3 -684 -3 -684 -585 -338 -585 -338 -2 -773
-3 -773 665 -384 c407 -234 672 -381 683 -378 9 2 275 153 590 336 316 182
577 331 582 331 5 0 266 -149 582 -331 315 -183 581 -334 590 -336 11 -3 276
144 683 378 l665 384 -3 773 -2 773 -585 338 -585 338 -3 684 -3 684 -663 383
c-365 210 -670 382 -677 382 -8 0 -312 -173 -676 -383z m1115 -223 c235 -136
428 -247 429 -248 4 -3 -857 -496 -867 -496 -6 0 -204 111 -440 247 -393 227
-427 249 -407 260 12 6 204 118 427 247 223 129 411 235 418 235 7 1 205 -110
440 -245z m-1023 -773 l430 -249 3 -502 c1 -276 -2 -500 -6 -498 -5 1 -203
115 -440 253 l-432 249 0 498 c0 274 3 498 8 498 4 -1 201 -113 437 -249z
m1615 -249 l0 -498 -432 -249 c-237 -138 -435 -252 -440 -253 -4 -2 -7 222 -6
498 l3 502 430 249 c237 136 433 248 438 249 4 0 7 -224 7 -498z m-1776 -1022
c234 -135 426 -247 426 -250 0 -3 -193 -117 -429 -253 -424 -245 -430 -248
-458 -233 -88 46 -828 478 -830 484 -3 8 848 502 859 499 4 -1 198 -112 432
-247z m2357 3 c236 -137 428 -251 426 -255 -2 -6 -742 -438 -830 -484 -28 -15
-34 -12 -458 233 -236 136 -429 250 -429 253 1 4 847 497 858 499 2 1 196
-110 433 -246z m-3353 -793 l402 -232 0 -499 c0 -274 -2 -499 -4 -499 -2 0
-197 111 -432 248 l-429 247 -3 504 -2 503 32 -20 c18 -11 214 -124 436 -252z
m1580 -735 c-7 -7 -110 -67 -228 -135 -118 -68 -311 -179 -427 -246 l-213
-123 0 502 0 502 438 252 437 252 3 -496 c2 -390 -1 -500 -10 -508z m810 720
l382 -220 0 -502 0 -502 -227 131 c-126 73 -322 186 -438 253 l-210 121 -3
503 -2 502 58 -33 c32 -18 230 -132 440 -253z m1550 -721 c-13 -11 -847 -494
-854 -494 -2 0 -3 225 -2 501 l3 500 430 249 430 248 3 -496 c2 -389 -1 -499
-10 -508z"/>
</g>
</svg>
