<?xml version="1.0" standalone="no"?>
<!DOCTYPE svg PUBLIC "-//W3C//DTD SVG 20010904//EN"
 "http://www.w3.org/TR/2001/REC-SVG-20010904/DTD/svg10.dtd">
<svg version="1.0" xmlns="http://www.w3.org/2000/svg"
 width="512.000000pt" height="512.000000pt" viewBox="0 0 512.000000 512.000000"
 preserveAspectRatio="xMidYMid meet">
<metadata>
Created by potrace 1.16, written by Peter Selinger 2001-2019
</metadata>
<g transform="translate(0.000000,512.000000) scale(0.100000,-0.100000)"
fill="#000000" stroke="none">
<path d="M2360 5084 c-73 -34 -102 -62 -1158 -1117 -596 -595 -1098 -1105
-1117 -1133 -76 -113 -98 -285 -55 -415 65 -193 219 -307 440 -325 l79 -7 3
-816 c3 -801 4 -817 24 -871 73 -192 187 -307 363 -367 65 -22 75 -22 551 -23
467 0 486 1 518 20 18 11 41 34 52 52 19 32 20 52 20 668 0 433 4 648 11 675
17 60 64 121 117 152 l47 28 316 0 316 0 49 -30 c55 -34 107 -111 118 -172 3
-21 6 -318 6 -661 0 -675 -2 -649 55 -702 l27 -25 481 -3 c322 -2 499 1 534 8
138 29 298 151 361 275 70 140 66 83 70 981 l3 812 82 7 c198 17 333 105 413
270 34 68 34 71 34 205 0 135 0 136 -36 210 -34 73 -61 101 -1132 1172 -1071
1071 -1099 1098 -1172 1132 -74 36 -75 36 -210 36 -135 0 -136 0 -210 -36z
m277 -274 c36 -14 2148 -2124 2168 -2166 35 -74 9 -168 -58 -212 -39 -26 -48
-27 -207 -32 -180 -5 -201 -11 -237 -67 -17 -25 -18 -89 -23 -928 -5 -823 -6
-903 -22 -936 -27 -57 -66 -98 -122 -127 l-51 -27 -357 -3 -357 -4 -3 579 c-3
566 -4 579 -26 643 -59 173 -174 295 -342 359 -64 25 -70 25 -402 29 -283 3
-347 1 -400 -12 -207 -53 -370 -220 -414 -425 -11 -52 -14 -183 -14 -619 l0
-554 -357 4 -358 3 -55 30 c-67 37 -115 98 -129 165 -7 35 -11 329 -11 918 0
842 -1 868 -20 899 -37 61 -57 67 -240 73 -159 5 -168 6 -207 32 -67 44 -93
138 -58 212 19 39 2131 2152 2165 2165 34 13 102 13 137 1z"/>
</g>
</svg>
