<?xml version="1.0" standalone="no"?>
<!DOCTYPE svg PUBLIC "-//W3C//DTD SVG 20010904//EN"
 "http://www.w3.org/TR/2001/REC-SVG-20010904/DTD/svg10.dtd">
<svg version="1.0" xmlns="http://www.w3.org/2000/svg"
 width="512.000000pt" height="512.000000pt" viewBox="0 0 512.000000 512.000000"
 preserveAspectRatio="xMidYMid meet">
<metadata>
Created by potrace 1.16, written by Peter Selinger 2001-2019
</metadata>
<g transform="translate(0.000000,512.000000) scale(0.100000,-0.100000)"
fill="#000000" stroke="none">
<path d="M1842 4620 c-45 -19 -212 -122 -264 -162 -242 -189 -421 -482 -489
-798 -19 -88 -23 -137 -23 -300 -1 -120 4 -224 12 -270 38 -213 101 -414 191
-605 44 -92 499 -887 613 -1070 305 -488 732 -814 1183 -901 305 -58 665 -1
921 147 125 72 137 82 170 141 27 49 29 61 28 148 -1 154 -57 294 -221 555
-187 296 -323 418 -499 447 -123 21 -190 0 -411 -126 -89 -51 -109 -58 -154
-58 -70 1 -162 47 -220 109 -27 30 -142 217 -298 485 -226 391 -254 445 -264
503 -8 49 -8 79 1 122 19 94 43 119 198 208 154 88 218 145 257 227 85 179 48
374 -135 711 -98 181 -176 293 -262 375 -93 88 -149 116 -241 119 -38 2 -80
-2 -93 -7z m140 -243 c86 -66 182 -205 296 -429 80 -159 107 -243 107 -340 0
-62 -4 -82 -21 -105 -11 -15 -83 -65 -160 -109 -183 -108 -214 -136 -263 -237
-64 -131 -74 -292 -26 -427 9 -25 134 -249 278 -499 303 -525 327 -557 478
-629 197 -94 299 -85 536 49 77 44 157 83 177 86 91 14 219 -98 363 -320 141
-216 213 -374 213 -468 0 -45 -8 -52 -155 -124 -173 -85 -403 -127 -583 -107
-242 28 -441 110 -660 274 -169 127 -352 331 -480 533 -123 196 -580 1000
-623 1095 -58 131 -113 293 -142 425 -19 86 -22 129 -21 315 0 202 2 221 27
315 33 120 118 296 186 385 81 107 217 231 322 293 52 31 97 56 101 57 3 0 26
-15 50 -33z"/>
</g>
</svg>
