<svg xmlns="http://www.w3.org/2000/svg" version="1.0" width="16.000000pt" height="16.000000pt" viewBox="0 0 16.000000 16.000000" preserveAspectRatio="xMidYMid meet">

<g transform="translate(0.000000,16.000000) scale(0.100000,-0.100000)" fill="#fff" stroke="none">
<path d="M4 147 c-3 -8 -4 -43 -2 -78 l3 -64 75 0 75 0 0 75 0 75 -73 3 c-55 2 -74 -1 -78 -11z m73 -32 c5 -14 8 -14 24 1 26 23 30 16 21 -37 -9 -50 -29 -58 -49 -19 l-13 25 0 -28 c0 -19 -4 -27 -12 -24 -15 5 -18 79 -3 89 16 12 25 9 32 -7z"/>
</g>
</svg>