<svg width="1366" height="281" viewBox="0 0 1366 281" fill="none" xmlns="http://www.w3.org/2000/svg">
<g style="mix-blend-mode:multiply">
<path fill-rule="evenodd" clip-rule="evenodd" d="M0 41L33 75C65 109 130 178 195 178C260 178 325 109 390 89C455 68 520 96 585 123C650 150 716 178 781 185C846 191 911 178 976 157C1041 137 1106 109 1171 82C1236 55 1301 27 1333 14L1366 0V287H1333C1301 287 1236 287 1171 287C1106 287 1041 287 976 287C911 287 846 287 781 287C716 287 650 287 585 287C520 287 455 287 390 287C325 287 260 287 195 287C130 287 65 287 33 287H0V41Z" fill="#FED727"/>
<path fill-rule="evenodd" clip-rule="evenodd" d="M0 41L33 75C65 109 130 178 195 178C260 178 325 109 390 89C455 68 520 96 585 123C650 150 716 178 781 185C846 191 911 178 976 157C1041 137 1106 109 1171 82C1236 55 1301 27 1333 14L1366 0V287H1333C1301 287 1236 287 1171 287C1106 287 1041 287 976 287C911 287 846 287 781 287C716 287 650 287 585 287C520 287 455 287 390 287C325 287 260 287 195 287C130 287 65 287 33 287H0V41Z" stroke="black"/>
</g>
</svg>
