<svg width="1366" height="239" viewBox="0 0 1366 239" fill="none" xmlns="http://www.w3.org/2000/svg">
<path fill-rule="evenodd" clip-rule="evenodd" d="M0 239L33 212C65 184 130 130 195 109C260 89 325 102 390 130C455 157 520 198 585 219C650 239 716 239 781 219C846 198 911 157 976 130C1041 102 1106 89 1171 109C1236 130 1301 184 1333 212L1366 239V-7H1333C1301 -7 1236 -7 1171 -7C1106 -7 1041 -7 976 -7C911 -7 846 -7 781 -7C716 -7 650 -7 585 -7C520 -7 455 -7 390 -7C325 -7 260 -7 195 -7C130 -7 65 -7 33 -7H0V239Z" fill="#1A4FD8" fill-opacity="0.8"/>
</svg>
